<svg xmlns="http://www.w3.org/2000/svg" viewBox="0 0 24 24" aria-hidden="true">
  <path fill="#111111" d="M12 .5C5.649.5.5 5.8.5 12.34c0 5.23 3.292 9.665 7.86 11.23.575.11.785-.255.785-.567 0-.28-.01-1.02-.016-2.002-3.197.71-3.872-1.586-3.872-1.586-.523-1.364-1.278-1.728-1.278-1.728-1.045-.73.079-.715.079-.715 1.156.084 1.764 1.219 1.764 1.219 1.027 1.806 2.694 1.284 3.35.981.104-.763.402-1.285.731-1.58-2.552-.3-5.236-1.31-5.236-5.832 0-1.289.448-2.344 1.183-3.17-.118-.3-.513-1.51.112-3.148 0 0 .965-.318 3.162 1.211a10.64 10.64 0 0 1 2.88-.399c.977.005 1.962.136 2.88.4 2.194-1.53 3.157-1.212 3.157-1.212.627 1.639.232 2.849.114 3.149.737.826 1.182 1.881 1.182 3.17 0 4.534-2.689 5.528-5.249 5.822.413.365.781 1.084.781 2.185 0 1.578-.014 2.85-.014 3.238 0 .315.207.683.79.566 4.563-1.567 7.852-6 7.852-11.228C23.5 5.8 18.351.5 12 .5Z"/>
</svg>
