<svg width="60" height="60" viewBox="0 0 60 60" fill="none" xmlns="http://www.w3.org/2000/svg">
<rect x="60" y="2.62268e-06" width="60" height="60" rx="30" transform="rotate(90 60 2.62268e-06)" fill="url(#paint0_radial_56_33)" fill-opacity="0.4"/>
<circle cx="30" cy="30" r="22" transform="rotate(90 30 30)" fill="url(#paint1_radial_56_33)"/>
<path d="M26.5 37C26.5 36.258 25.767 35.15 25.025 34.22C24.071 33.02 22.931 31.973 21.624 31.174C20.644 30.575 19.456 30 18.5 30M18.5 30C19.456 30 20.645 29.425 21.624 28.826C22.931 28.026 24.071 26.979 25.025 25.781C25.767 24.85 26.5 23.74 26.5 23M18.5 30L42.5 30" stroke="#CBBFAF"/>
<defs>
<radialGradient id="paint0_radial_56_33" cx="0" cy="0" r="1" gradientUnits="userSpaceOnUse" gradientTransform="translate(90 30) rotate(90) scale(30)">
<stop offset="0.31736" stop-color="#D9D9D9" stop-opacity="0"/>
<stop offset="1" stop-color="#E7D8C4"/>
</radialGradient>
<radialGradient id="paint1_radial_56_33" cx="0" cy="0" r="1" gradientUnits="userSpaceOnUse" gradientTransform="translate(30 30) rotate(90) scale(22)">
<stop offset="0.312552" stop-color="#F7F2E8"/>
<stop offset="1" stop-color="#F0E5D6"/>
</radialGradient>
</defs>
</svg>
