<svg width="60" height="60" viewBox="0 0 60 60" fill="none" xmlns="http://www.w3.org/2000/svg">
<rect x="60" y="2.62268e-06" width="60" height="60" rx="30" transform="rotate(90 60 2.62268e-06)" fill="url(#paint0_radial_30_562)" fill-opacity="0.4"/>
<circle cx="30" cy="30" r="22" transform="rotate(90 30 30)" fill="url(#paint1_radial_30_562)"/>
<path d="M34.5 23C34.5 23.742 35.233 24.85 35.975 25.78C36.929 26.98 38.069 28.027 39.376 28.826C40.356 29.425 41.544 30 42.5 30M42.5 30C41.544 30 40.355 30.575 39.376 31.174C38.069 31.974 36.929 33.021 35.975 34.219C35.233 35.15 34.5 36.26 34.5 37M42.5 30L18.5 30" stroke="#F7F2E8"/>
<defs>
<radialGradient id="paint0_radial_30_562" cx="0" cy="0" r="1" gradientUnits="userSpaceOnUse" gradientTransform="translate(90 30) rotate(90) scale(30)">
<stop offset="0.937576" stop-color="#D9D9D9" stop-opacity="0"/>
<stop offset="1" stop-color="#FBFBFB" stop-opacity="0.2"/>
</radialGradient>
<radialGradient id="paint1_radial_30_562" cx="0" cy="0" r="1" gradientUnits="userSpaceOnUse" gradientTransform="translate(30 30) rotate(90) scale(22)">
<stop offset="0.312552" stop-color="#272525"/>
<stop offset="1" stop-color="#2E2E2E"/>
</radialGradient>
</defs>
</svg>
